<?xml version="1.0" standalone="no"?>
<!DOCTYPE svg PUBLIC "-//W3C//DTD SVG 20010904//EN"
 "http://www.w3.org/TR/2001/REC-SVG-20010904/DTD/svg10.dtd">
<svg version="1.0" xmlns="http://www.w3.org/2000/svg"
 width="296.000000pt" height="296.000000pt" viewBox="0 0 296.000000 296.000000"
 preserveAspectRatio="xMidYMid meet">
<metadata>
Created by potrace 1.14, written by Peter Selinger 2001-2017
</metadata>
<g transform="translate(0.000000,296.000000) scale(0.100000,-0.100000)"
fill="#000000" stroke="none">
<path d="M1765 2466 c-16 -7 -36 -25 -44 -39 -13 -24 -15 -25 -38 -10 -13 9
-26 13 -30 10 -3 -4 2 -9 11 -13 22 -8 11 -23 -13 -17 -11 3 -32 -2 -48 -10
-15 -9 -45 -23 -66 -33 -63 -28 -182 -181 -149 -192 7 -2 6 -15 -4 -39 -20
-46 -26 -94 -14 -108 5 -6 8 -20 6 -31 -2 -11 4 -35 14 -53 14 -28 15 -40 6
-63 -9 -23 -7 -35 6 -58 17 -29 16 -30 -5 -35 -12 -3 -33 -4 -47 -1 -14 2 -30
5 -37 5 -7 1 -28 15 -47 32 -46 40 -65 115 -48 191 l12 51 -82 86 c-87 90
-123 149 -143 235 -11 48 -12 49 -20 24 -10 -39 -21 -35 -29 12 -8 49 -22 51
-41 6 -11 -25 -12 -42 -4 -71 10 -34 2 -67 -8 -37 -3 6 -9 12 -15 12 -16 0 -2
-69 18 -91 12 -13 14 -22 7 -31 -18 -23 -4 -62 35 -95 20 -18 31 -33 25 -33
-23 0 -14 -48 13 -69 14 -11 30 -21 37 -24 9 -3 9 -8 -1 -20 -17 -21 -8 -51
24 -76 21 -17 23 -23 13 -39 -15 -24 -5 -52 18 -52 10 0 23 -8 30 -18 10 -17
6 -21 -35 -35 -54 -20 -110 -16 -192 12 -69 24 -133 19 -204 -14 -67 -32 -94
-34 -144 -11 -39 18 -40 19 -30 53 5 20 8 62 6 94 -3 56 -2 59 25 70 58 24 43
103 -28 145 -26 15 -64 53 -95 96 l-51 70 -61 -6 c-34 -3 -65 -11 -69 -17 -4
-7 3 -28 16 -48 13 -20 40 -75 61 -124 l36 -87 -21 -53 c-34 -83 -49 -173 -39
-231 20 -112 122 -273 204 -321 31 -18 61 -47 77 -74 26 -41 27 -45 11 -62
-13 -15 -20 -16 -31 -8 -12 11 -52 10 -160 -5 -27 -4 -34 -1 -45 21 -17 34
-60 49 -96 34 -39 -17 -179 -153 -192 -186 -15 -40 -15 -91 0 -110 7 -9 29
-15 53 -15 33 0 50 8 95 45 30 25 62 45 71 46 40 3 79 -4 147 -27 173 -56 307
-53 432 10 42 21 50 23 72 10 109 -60 263 -54 399 15 53 27 170 138 231 217
l46 62 39 -35 c22 -19 60 -46 86 -59 26 -13 50 -28 54 -33 3 -6 28 -126 55
-268 28 -142 54 -274 58 -293 4 -19 6 -69 4 -110 -3 -94 2 -116 31 -131 21
-12 21 -11 5 8 -24 26 -23 90 1 129 12 19 54 53 105 83 90 55 130 96 147 152
17 57 21 124 10 167 -10 34 -8 50 7 94 11 29 24 52 30 51 15 -4 70 65 83 104
6 18 14 33 19 33 5 0 87 -28 182 -61 95 -34 191 -68 214 -76 38 -13 41 -17 40
-51 -1 -33 2 -37 27 -40 30 -4 127 25 127 37 0 15 -62 102 -80 111 -24 13 -63
-16 -57 -41 6 -22 3 -23 -26 -7 -12 7 -42 18 -67 24 -25 6 -122 39 -217 73
-94 33 -176 61 -182 61 -33 0 11 110 59 149 25 20 51 56 71 98 27 57 31 74 26
122 -3 31 -19 92 -37 135 -18 44 -32 94 -32 112 0 41 28 89 60 104 34 15 19
25 -16 11 -17 -7 -38 -28 -48 -49 -24 -46 -17 -40 -159 -153 -284 -228 -351
-282 -365 -299 -34 -39 -52 -40 -87 -4 -18 19 -33 36 -33 38 0 2 10 4 23 4
110 2 142 17 223 104 38 40 43 55 33 91 -6 20 -1 43 20 90 16 34 32 78 36 97
13 67 15 72 30 60 12 -10 13 -7 6 17 -5 15 -12 36 -16 45 -5 13 -1 19 18 23
31 8 72 50 86 88 l11 29 -42 -5 c-24 -3 -51 -1 -60 4 -10 5 -43 41 -73 79 -68
85 -81 94 -179 123 -71 21 -76 24 -54 35 21 10 20 10 -11 5 -31 -6 -33 -5 -22
15 6 12 19 25 29 31 27 15 10 21 -23 7z m614 -692 c29 -83 33 -104 29 -164 -6
-80 -38 -144 -93 -186 -23 -17 -41 -43 -53 -76 -9 -28 -23 -53 -30 -55 -11 -5
-105 25 -331 106 -95 34 -102 38 -81 54 27 21 264 211 285 229 66 55 231 187
235 187 3 1 20 -42 39 -95z m-509 -613 c32 -11 89 -19 138 -20 76 -2 113 -13
161 -47 1 -2 -4 -24 -13 -51 -13 -38 -14 -56 -5 -83 23 -76 4 -162 -52 -241
-12 -17 -54 -51 -93 -76 -39 -25 -74 -51 -78 -57 -11 -16 -13 -10 -36 114 -13
63 -36 183 -52 265 -40 204 -41 215 -33 215 5 0 33 -9 63 -19z"/>
</g>
</svg>
